<svg width="80" height="80" viewBox="0 0 80 80" fill="none" xmlns="http://www.w3.org/2000/svg">
<path d="M60.6055 23H19.3945C16.9675 23 15 24.9675 15 27.3945V52.7852C15 55.2122 16.9675 57.1797 19.3945 57.1797H60.6055C63.0325 57.1797 65 55.2122 65 52.7852V27.3945C65 24.9675 63.0325 23 60.6055 23ZM57.0891 48.1358C56.4732 48.6598 55.5484 48.5855 55.0242 47.969L46.5695 38.0283L40.7259 41.3622C40.276 41.6188 39.7239 41.6187 39.2742 41.3622L33.4306 38.0283L24.9758 47.9689C24.452 48.585 23.5272 48.6601 22.9109 48.1357C22.2946 47.6116 22.22 46.6872 22.7441 46.0709L30.8411 36.551L23.6492 32.4479C22.9465 32.0471 22.7019 31.1523 23.1026 30.4497C23.5036 29.7469 24.3981 29.5023 25.1009 29.9031C25.6969 30.2431 39.3279 38.0197 40 38.4032C40.6713 38.0202 54.3016 30.244 54.8991 29.9031C55.6016 29.5022 56.4964 29.7469 56.8974 30.4497C57.2981 31.1523 57.0536 32.047 56.3508 32.4479L49.1589 36.551L57.2559 46.0709C57.78 46.6873 57.7054 47.6116 57.0891 48.1358Z" fill="#292B5C"/>
</svg>
