<svg width="80" height="80" viewBox="0 0 80 80" fill="none" xmlns="http://www.w3.org/2000/svg">
<path d="M33.5187 27.5358C27.6272 33.6314 28.9128 43.7473 35.6615 48.2286C35.8839 48.3763 36.1797 48.347 36.3707 48.1604C37.7915 46.7721 38.9934 45.4275 40.0458 43.7173C40.2068 43.4557 40.1067 43.1162 39.8365 42.9698C38.8071 42.4122 37.7829 41.3665 37.2062 40.2619L37.2055 40.2623C36.5148 38.8868 36.2796 37.345 36.6453 35.7527C36.6457 35.7528 36.6461 35.7529 36.6465 35.7529C37.0673 33.7143 39.2559 31.8179 40.9274 30.0641C40.9239 30.0629 40.9205 30.0617 40.917 30.0605L47.1799 23.6684C49.6757 21.121 53.7811 21.1 56.3028 23.6218C58.8501 26.1175 58.8922 30.2436 56.3964 32.7908L52.6029 36.6918C52.4273 36.8724 52.3704 37.1358 52.4526 37.3739C53.326 39.9067 53.5408 43.4782 52.9555 46.1765C52.9391 46.252 53.0323 46.3014 53.0863 46.2462L61.1601 38.0058C66.3178 32.7417 66.274 24.171 61.0629 18.9599C55.7448 13.6418 47.087 13.686 41.8235 19.0581L33.5511 27.5012C33.5401 27.5128 33.5298 27.5245 33.5187 27.5358Z" fill="#292B5C"/>
<path d="M48.6126 49.3893C48.6125 49.3896 48.6123 49.3899 48.6122 49.3902C48.6174 49.3881 48.6221 49.386 48.6273 49.3838C50.275 46.3708 50.5994 42.9152 49.8272 39.5466L49.8237 39.5502L49.8198 39.5486C49.0866 36.5483 47.0747 33.569 44.3422 31.7347C44.1071 31.5769 43.7317 31.5952 43.5115 31.7732C42.1274 32.8923 40.7726 34.3275 39.8786 36.1589C39.7383 36.4464 39.8434 36.7918 40.1201 36.9524C41.1575 37.5547 42.0945 38.4365 42.7218 39.6073L42.7228 39.6066C43.2117 40.4336 43.6935 42.0029 43.3814 43.689C43.3812 43.689 43.3809 43.689 43.3807 43.689C43.0896 45.9245 40.8321 47.975 39.0375 49.8227L39.0384 49.8236C37.6724 51.2205 34.1998 54.7606 32.8094 56.1812C30.3136 58.7284 26.1875 58.7705 23.6403 56.2748C21.093 53.779 21.0509 49.6529 23.5467 47.1057L27.3514 43.193C27.5239 43.0157 27.5825 42.7579 27.5058 42.5228C26.661 39.9307 26.4295 36.4397 26.9628 33.7445C26.9776 33.6694 26.8852 33.6214 26.8316 33.6761L18.8792 41.7925C13.6687 47.1107 13.7129 55.7693 18.9775 61.0338C24.2954 66.2442 32.9093 66.1562 38.1197 60.8383C39.9297 58.8136 47.6782 51.6396 48.6126 49.3893Z" fill="#292B5C"/>
</svg>
